<svg xmlns="http://www.w3.org/2000/svg" viewBox="0 0 44 44"><path fill-rule="evenodd" d="M3 21H1a1 1 0 1 0 0 2h2a1 1 0 1 0 0-2zm40 0h-2a1 1 0 1 0 0 2h2a1 1 0 1 0 0-2zM36 14a1 1 0 0 0-1 1v14a1 1 0 1 0 2 0V15a1 1 0 0 0-1-1zm-20 0a1 1 0 0 0-1 1v14a1 1 0 1 0 2 0V15a1 1 0 0 0-1-1zm-8 4a1 1 0 0 0-1 1v6a1 1 0 1 0 2 0v-6a1 1 0 0 0-1-1zm24-8a1 1 0 0 0-1 1v22a1 1 0 1 0 2 0V11a1 1 0 0 0-1-1zm-8 0a1 1 0 0 0-1 1v22a1 1 0 1 0 2 0V11a1 1 0 0 0-1-1zm-12 0a1 1 0 0 0-1 1v22a1 1 0 1 0 2 0V11a1 1 0 0 0-1-1zm16-4a1 1 0 0 0-1 1v30a1 1 0 1 0 2 0V7a1 1 0 0 0-1-1zm-8 0a1 1 0 0 0-1 1v30a1 1 0 1 0 2 0V7a1 1 0 0 0-1-1z"/></svg>