<svg xmlns="http://www.w3.org/2000/svg" width="512" height="512"><path d="M238.833 444.834V410.5h-68.667v34.334h68.667zM376.166 101.5h51.5v34.333H462V67.166h-85.834V101.5zM50 341.834h34.333v-68.668H50v68.668zm0-103.001h34.333v-68.667H50v68.667zm34.333-103V101.5h51.5V67.166H50v68.667h34.333zM462 170.166h-34.334v68.667H462v-68.667zm0 103h-34.334v68.668H462v-68.668zm-34.334 103V410.5h-51.5v34.334H462v-68.668h-34.334zM135.833 410.5h-51.5v-34.334H50v68.668h85.833V410.5zm206.001 34.334V410.5h-68.668v34.334h68.668zM238.833 101.5V67.166h-68.667V101.5h68.667zm103.001 0V67.166h-68.668V101.5h68.668z"/></svg>