<svg id="cd2532fc-b76f-4551-ade3-0c357a0997a4" data-name="Layer 1" xmlns="http://www.w3.org/2000/svg" viewBox="0 0 980 983.87"><title>logo_outline</title><polygon points="490.01 972.88 489.93 972.92 489.93 972.85 490.01 972.88" fill="#897ebb"/><polygon points="489.84 588.91 489.93 588.94 489.84 588.96 489.84 588.91" fill="#897ebb"/><polygon points="489.93 972.85 489.93 972.92 10 780.6 10.15 780.53 10.15 780.6 489.93 972.85" fill="#897ebb"/><polygon points="10.07 397.24 10.07 397.31 10 397.27 10.07 397.24" fill="#897ebb"/><line x1="10.15" y1="780.53" x2="10.07" y2="397.31" fill="none" stroke="#fff" stroke-miterlimit="10" stroke-width="20"/><polyline points="10.07 397.24 10 14.73 489.93 205.39 969.85 14.73 969.92 397.27 970 780.6 490.08 972.92 490.01 972.88" fill="none" stroke="#fff" stroke-miterlimit="10" stroke-width="20"/><polyline points="489.93 972.92 490.01 972.88 969.85 780.6 489.93 588.94 489.84 588.91 10.07 397.31 10 397.27 10.07 397.24 489.78 205.39 489.91 205.44 969.85 397.27 489.93 588.94 489.84 588.96 10.15 780.53 10 780.6 489.93 972.92" fill="none" stroke="#fff" stroke-linejoin="round" stroke-width="20"/><line x1="489.93" y1="972.92" x2="489.93" y2="972.85" fill="none" stroke="#fff" stroke-linejoin="round" stroke-width="20"/><line x1="489.93" y1="972.85" x2="489.84" y2="588.96" fill="none" stroke="#fff" stroke-linejoin="round" stroke-width="20"/><line x1="489.84" y1="588.96" x2="489.84" y2="588.91" fill="none" stroke="#fff" stroke-linejoin="round" stroke-width="20"/><line x1="489.84" y1="588.91" x2="489.78" y2="205.39" fill="none" stroke="#fff" stroke-linejoin="round" stroke-width="20"/></svg>