<svg height="1000" width="357.143" xmlns="http://www.w3.org/2000/svg"><path d="M357.12 750.016v71.424q0 14.508-10.602 25.11t-25.11 10.602H35.712q-14.508 0-25.11-10.602T0 821.44v-71.424q0-14.508 10.602-25.11t25.11-10.602h35.712V500.032H35.712q-14.508 0-25.11-10.602T0 464.32v-71.424q0-14.508 10.602-25.11t25.11-10.602h214.272q14.508 0 25.11 10.602t10.602 25.11v321.408h35.712q14.508 0 25.11 10.602t10.602 25.11zM285.696 107.2v107.136q0 14.508-10.602 25.11t-25.11 10.602H107.136q-14.508 0-25.11-10.602t-10.602-25.11V107.2q0-14.508 10.602-25.11t25.11-10.602h142.848q14.508 0 25.11 10.602t10.602 25.11z"/></svg>