<svg xmlns="http://www.w3.org/2000/svg" viewBox="0 0 20 20"><path d="M7.859 14.691l-.81.805a1.814 1.814 0 0 1-2.545 0 1.762 1.762 0 0 1 0-2.504l2.98-2.955c.617-.613 1.779-1.515 2.626-.675a.992.992 0 1 0 1.397-1.407c-1.438-1.428-3.566-1.164-5.419.675l-2.98 2.956A3.719 3.719 0 0 0 2 14.244a3.72 3.72 0 0 0 1.108 2.658 3.779 3.779 0 0 0 2.669 1.096c.967 0 1.934-.365 2.669-1.096l.811-.805a.988.988 0 0 0 .005-1.4.995.995 0 0 0-1.403-.006zm9.032-11.484c-1.547-1.534-3.709-1.617-5.139-.197l-1.009 1.002a.99.99 0 1 0 1.396 1.406l1.01-1.001c.74-.736 1.711-.431 2.346.197.336.335.522.779.522 1.252s-.186.917-.522 1.251l-3.18 3.154c-1.454 1.441-2.136.766-2.427.477a.99.99 0 1 0-1.396 1.406c.668.662 1.43.99 2.228.99.977 0 2.01-.492 2.993-1.467l3.18-3.153A3.732 3.732 0 0 0 18 5.866a3.726 3.726 0 0 0-1.109-2.659z"/></svg>