<svg height="1000" width="857.143" xmlns="http://www.w3.org/2000/svg"><path d="M843.138 589.312q0 2.79 -.558 3.906 -35.712 149.544 -149.544 242.451t-266.724 92.907q-81.468 0 -157.635 -30.69t-135.873 -87.606l-71.982 71.982q-10.602 10.602 -25.11 10.602t-25.11 -10.602 -10.602 -25.11v-249.984q0 -14.508 10.602 -25.11t25.11 -10.602h249.984q14.508 0 25.11 10.602t10.602 25.11 -10.602 25.11l-76.446 76.446q39.618 36.828 89.838 56.916t104.346 20.088q74.772 0 139.5 -36.27t103.788 -99.882q6.138 -9.486 29.574 -65.286 4.464 -12.834 16.74 -12.834h107.136q7.254 0 12.555 5.301t5.301 12.555zm13.95 -446.4v249.984q0 14.508 -10.602 25.11t-25.11 10.602h-249.984q-14.508 0 -25.11 -10.602t-10.602 -25.11 10.602 -25.11l77.004 -77.004q-82.584 -76.446 -194.742 -76.446 -74.772 0 -139.5 36.27t-103.788 99.882q-6.138 9.486 -29.574 65.286 -4.464 12.834 -16.74 12.834h-111.042q-7.254 0 -12.555 -5.301t-5.301 -12.555v-3.906q36.27 -149.544 150.66 -242.451t267.84 -92.907q81.468 0 158.472 30.969t136.71 87.327l72.54 -71.982q10.602 -10.602 25.11 -10.602t25.11 10.602 10.602 25.11z"/></svg>