<svg height="1000" width="857.143" xmlns="http://www.w3.org/2000/svg"><path d="M571.392 500.032q0 -59.148 -41.85 -100.998t-100.998 -41.85 -100.998 41.85 -41.85 100.998 41.85 100.998 100.998 41.85 100.998 -41.85 41.85 -100.998zm285.696 -60.822v123.876q0 6.696 -4.464 12.834t-11.16 7.254l-103.23 15.624q-10.602 30.132 -21.762 50.778 19.53 27.9 59.706 77.004 5.58 6.696 5.58 13.95t-5.022 12.834q-15.066 20.646 -55.242 60.264t-52.452 39.618q-6.696 0 -14.508 -5.022l-77.004 -60.264q-24.552 12.834 -50.778 21.204 -8.928 75.888 -16.182 103.788 -3.906 15.624 -20.088 15.624h-123.876q-7.812 0 -13.671 -4.743t-6.417 -11.997l-15.624 -102.672q-27.342 -8.928 -50.22 -20.646l-78.678 59.706q-5.58 5.022 -13.95 5.022 -7.812 0 -13.95 -6.138 -70.308 -63.612 -92.07 -93.744 -3.906 -5.58 -3.906 -12.834 0 -6.696 4.464 -12.834 8.37 -11.718 28.458 -37.107t30.132 -39.339q-15.066 -27.9 -22.878 -55.242l-102.114 -15.066q-7.254 -1.116 -11.718 -6.975t-4.464 -13.113v-123.876q0 -6.696 4.464 -12.834t10.602 -7.254l103.788 -15.624q7.812 -25.668 21.762 -51.336 -22.32 -31.806 -59.706 -77.004 -5.58 -6.696 -5.58 -13.392 0 -5.58 5.022 -12.834 14.508 -20.088 54.963 -59.985t52.731 -39.897q7.254 0 14.508 5.58l77.004 59.706q24.552 -12.834 50.778 -21.204 8.928 -75.888 16.182 -103.788 3.906 -15.624 20.088 -15.624h123.876q7.812 0 13.671 4.743t6.417 11.997l15.624 102.672q27.342 8.928 50.22 20.646l79.236 -59.706q5.022 -5.022 13.392 -5.022 7.254 0 13.95 5.58 71.982 66.402 92.07 94.86 3.906 4.464 3.906 12.276 0 6.696 -4.464 12.834 -8.37 11.718 -28.458 37.107t-30.132 39.339q14.508 27.9 22.878 54.684l102.114 15.624q7.254 1.116 11.718 6.975t4.464 13.113z"/></svg>