<svg height="1000" width="928.571" xmlns="http://www.w3.org/2000/svg"><path d="M310.806 714.304h332.01v-332.01zm-25.11 -25.11l332.01 -332.01h-332.01v332.01zm642.816 42.966v107.136q0 7.812 -5.022 12.834t-12.834 5.022h-124.992v124.992q0 7.812 -5.022 12.834t-12.834 5.022h-107.136q-7.812 0 -12.834 -5.022t-5.022 -12.834v-124.992h-482.112q-7.812 0 -12.834 -5.022t-5.022 -12.834v-482.112h-124.992q-7.812 0 -12.834 -5.022t-5.022 -12.834v-107.136q0 -7.812 5.022 -12.834t12.834 -5.022h124.992v-124.992q0 -7.812 5.022 -12.834t12.834 -5.022h107.136q7.812 0 12.834 5.022t5.022 12.834v124.992h474.858l137.268 -137.826q5.58 -5.022 12.834 -5.022t12.834 5.022q5.022 5.58 5.022 12.834t-5.022 12.834l-137.826 137.268v474.858h124.992q7.812 0 12.834 5.022t5.022 12.834z"/></svg>