<svg height="1000" width="1000" xmlns="http://www.w3.org/2000/svg"><path d="M499.968 909.046l357.12 -194.742v-354.888l-357.12 130.014v419.616zm-35.712 -482.67l389.484 -141.732 -389.484 -141.732 -389.484 141.732zm464.256 -140.616v428.544q0 19.53 -10.044 36.27t-27.342 26.226l-392.832 214.272q-15.624 8.928 -34.038 8.928t-34.038 -8.928l-392.832 -214.272q-17.298 -9.486 -27.342 -26.226t-10.044 -36.27v-428.544q0 -22.32 12.834 -40.734t34.038 -26.226l392.832 -142.848q12.276 -4.464 24.552 -4.464t24.552 4.464l392.832 142.848q21.204 7.812 34.038 26.226t12.834 40.734z"/></svg>