<svg height="1000" width="1000" xmlns="http://www.w3.org/2000/svg"><path d="M495.504 660.736l64.728 -64.728 -84.816 -84.816 -64.728 64.728v31.248h53.568v53.568h31.248zm245.52 -401.76q-8.928 -8.928 -18.414 .558l-195.3 195.3q-9.486 9.486 -.558 18.414t18.414 -.558l195.3 -195.3q9.486 -9.486 .558 -18.414zm44.64 331.452v106.02q0 66.402 -47.151 113.553t-113.553 47.151h-464.256q-66.402 0 -113.553 -47.151t-47.151 -113.553v-464.256q0 -66.402 47.151 -113.553t113.553 -47.151h464.256q35.154 0 65.286 13.95 8.37 3.906 10.044 12.834 1.674 9.486 -5.022 16.182l-27.342 27.342q-7.812 7.812 -17.856 4.464 -12.834 -3.348 -25.11 -3.348h-464.256q-36.828 0 -63.054 26.226t-26.226 63.054v464.256q0 36.828 26.226 63.054t63.054 26.226h464.256q36.828 0 63.054 -26.226t26.226 -63.054v-70.308q0 -7.254 5.022 -12.276l35.712 -35.712q8.37 -8.37 19.53 -3.906t11.16 16.182zm-53.568 -411.804l160.704 160.704 -374.976 374.976h-160.704v-160.704zm247.752 73.656l-51.336 51.336 -160.704 -160.704 51.336 -51.336q15.624 -15.624 37.944 -15.624t37.944 15.624l84.816 84.816q15.624 15.624 15.624 37.944t-15.624 37.944z"/></svg>