<svg xmlns="http://www.w3.org/2000/svg" width="512" height="512"><path d="M307.5 153s-40.234 27.359-64.626 42.439A85.83 85.83 0 0 1 204.5 204.5H81.022C64.577 208.289 50 231.239 50 257.467c0 25.256 13.948 46.11 31.022 50.033H204.5c13.311 0 26.454 2.564 38.374 8.516C269.947 332.713 307.5 359 307.5 359V153zM170.167 273.166c-9.48 0-17.167-7.686-17.167-17.166 0-9.479 7.687-17.166 17.167-17.166s17.167 7.687 17.167 17.166c-.001 9.48-7.687 17.166-17.167 17.166zM359 153v206h-34.334V153H359zm103 120.166h-68.666v-34.332H462v34.332zm0-111.582l-53.109 37.552-18.608-25.75 53.109-37.552L462 161.584zm-18.608 214.582l-53.109-37.551 18.608-25.75L462 350.416l-18.608 25.75z"/></svg>