<?xml version="1.0" encoding="utf-8"?>

<!-- License Agreement at http://iconmonstr.com/license/ -->

<!DOCTYPE svg PUBLIC "-//W3C//DTD SVG 1.1//EN" "http://www.w3.org/Graphics/SVG/1.1/DTD/svg11.dtd">
<svg version="1.1" xmlns="http://www.w3.org/2000/svg" xmlns:xlink="http://www.w3.org/1999/xlink" x="0px" y="0px"
	 width="512px" height="512px" viewBox="0 0 512 512" style="enable-background:new 0 0 512 512;" xml:space="preserve">
<path id="flashlight-3" d="M307.5,153c0,0-40.234,27.359-64.626,42.439c-11.919,5.959-25.062,9.061-38.374,9.061H81.022
	C64.577,208.289,50,231.239,50,257.467c0,25.256,13.948,46.11,31.022,50.033H204.5c13.311,0,26.454,2.564,38.374,8.516
	C269.947,332.713,307.5,359,307.5,359V153z M170.167,273.166c-9.48,0-17.167-7.686-17.167-17.166
	c0-9.479,7.687-17.166,17.167-17.166c9.48,0,17.167,7.687,17.167,17.166C187.333,265.48,179.647,273.166,170.167,273.166z M359,153
	v206h-34.334V153H359z M462,273.166h-68.666v-34.332H462V273.166z M462,161.584l-53.109,37.552l-18.608-25.75l53.109-37.552
	L462,161.584z M443.392,376.166l-53.109-37.551l18.608-25.75L462,350.416L443.392,376.166z"/>
</svg>
