<svg height="1000" width="357.143" xmlns="http://www.w3.org/2000/svg"><path d="M357.12 750.016v71.424q0 14.508 -10.602 25.11t-25.11 10.602h-285.696q-14.508 0 -25.11 -10.602t-10.602 -25.11v-71.424q0 -14.508 10.602 -25.11t25.11 -10.602h35.712v-214.272h-35.712q-14.508 0 -25.11 -10.602t-10.602 -25.11v-71.424q0 -14.508 10.602 -25.11t25.11 -10.602h214.272q14.508 0 25.11 10.602t10.602 25.11v321.408h35.712q14.508 0 25.11 10.602t10.602 25.11zm-71.424 -642.816v107.136q0 14.508 -10.602 25.11t-25.11 10.602h-142.848q-14.508 0 -25.11 -10.602t-10.602 -25.11v-107.136q0 -14.508 10.602 -25.11t25.11 -10.602h142.848q14.508 0 25.11 10.602t10.602 25.11z"/></svg>