<?xml version='1.0' encoding='iso-8859-1'?>
<svg version="1.1" xmlns="http://www.w3.org/2000/svg" viewBox="0 0 44 44" xmlns:xlink="http://www.w3.org/1999/xlink" enable-background="new 0 0 44 44">
  <g>
    <g>
      <path fill-rule="evenodd" d="m3,21h-2c-0.552,0-1,0.447-1,1 0,0.553 0.448,1 1,1h2c0.552,0 1-0.447 1-1 0-0.553-0.448-1-1-1zm40,0h-2c-0.552,0-1,0.447-1,1 0,0.553 0.448,1 1,1h2c0.552,0 1-0.447 1-1 0-0.553-0.448-1-1-1z"/>
    </g>
  </g>
  <g>
    <g>
      <path fill-rule="evenodd" d="m36,14c-0.552,0-1,0.447-1,1v14c0,0.553 0.448,1 1,1s1-0.447 1-1v-14c0-0.553-0.448-1-1-1zm-20,0c-0.552,0-1,0.447-1,1v14c0,0.553 0.448,1 1,1s1-0.447 1-1v-14c0-0.553-0.448-1-1-1zm-8,4c-0.552,0-1,0.447-1,1v6c0,0.553 0.448,1 1,1s1-0.447 1-1v-6c0-0.553-0.448-1-1-1zm24-8c-0.552,0-1,0.447-1,1v22c0,0.553 0.448,1 1,1s1-0.447 1-1v-22c0-0.553-0.448-1-1-1zm-8,0c-0.552,0-1,0.447-1,1v22c0,0.553 0.448,1 1,1s1-0.447 1-1v-22c0-0.553-0.448-1-1-1zm-12,0c-0.552,0-1,0.447-1,1v22c0,0.553 0.448,1 1,1s1-0.447 1-1v-22c0-0.553-0.448-1-1-1zm16-4c-0.552,0-1,0.447-1,1v30c0,0.553 0.448,1 1,1s1-0.447 1-1v-30c0-0.553-0.448-1-1-1zm-8,0c-0.552,0-1,0.447-1,1v30c0,0.553 0.448,1 1,1s1-0.447 1-1v-30c0-0.553-0.448-1-1-1z"/>
    </g>
  </g>
</svg>
