<svg xmlns="http://www.w3.org/2000/svg" width="512" height="512"><path d="M292.2 381.263h-72.511c-5.082 0-9.201 4.12-9.201 9.203a9.2 9.2 0 0 0 9.201 9.201H292.2a9.2 9.2 0 0 0 9.202-9.201 9.202 9.202 0 0 0-9.202-9.203zm-1.654 30.637h-69.201c-5.082 0-9.201 4.121-9.201 9.202a9.2 9.2 0 0 0 9.201 9.202h69.201a9.2 9.2 0 0 0 9.201-9.202c0-5.081-4.119-9.202-9.201-9.202zm-68.726 30.211C239.735 458.673 241.58 462 248.731 462h13.774c6.99 0 8.714-3.084 27.564-19.889H221.82zm138.879-220.482c0 62.305-53.581 97.22-53.581 146.388h-24.4c.021-60.599 53.142-92.516 53.142-146.388 0-100.84-159.828-100.998-159.828 0 0 53.823 52.2 84.366 53.409 146.388h-24.668c0-49.168-53.581-84.083-53.581-146.388-.001-133.904 209.507-134.04 209.507 0zM269.203 95.112H244.14V50h25.063v45.112zm86.061-21.142L333.18 62.12l-22.056 41.103 22.085 11.85 22.055-41.103zm64.091 62.072l-14.599-20.372-40.099 28.739 14.598 20.371 40.1-28.738zm4.426 158.099l-45.115-18.278-9.409 23.229 45.116 18.277 9.408-23.228zm15.008-88.586h-51.125v25.062h51.125v-25.062zM200.876 103.223L178.82 62.12l-22.084 11.85 22.055 41.103 22.085-11.85zm-53.532 41.186l-40.101-28.739-14.599 20.372 40.1 28.738 14.6-20.371zM143.178 296.9L132.9 274.043l-45.116 20.283 10.276 22.857 45.118-20.283zm-18.84-91.345H73.211v25.062h51.127v-25.062z"/></svg>