<?xml version="1.0" encoding="iso-8859-1"?>
<!-- Generator: Adobe Illustrator 16.0.0, SVG Export Plug-In . SVG Version: 6.00 Build 0)  -->
<!DOCTYPE svg PUBLIC "-//W3C//DTD SVG 1.1//EN" "http://www.w3.org/Graphics/SVG/1.1/DTD/svg11.dtd">
<svg version="1.1" id="Capa_1" xmlns="http://www.w3.org/2000/svg" xmlns:xlink="http://www.w3.org/1999/xlink" x="0px" y="0px"
	 width="401.403px" height="401.403px" viewBox="0 0 401.403 401.403" style="enable-background:new 0 0 401.403 401.403;"
	 xml:space="preserve">
<path d="M392.805,0.003H8.598C3.848,0.003,0,3.851,0,8.595v384.207c0,4.75,3.848,8.599,8.598,8.599h384.208
	c4.749,0,8.598-3.849,8.598-8.599V8.595C401.403,3.851,397.548,0.003,392.805,0.003z M200.702,349.338
	c-85.866,0-155.483-69.611-155.483-155.487c0-85.866,69.611-155.484,155.483-155.484c85.866,0,155.483,69.611,155.483,155.484
	C356.185,279.727,286.568,349.338,200.702,349.338z"/>
</svg>
