<svg height="1000" width="857.143" xmlns="http://www.w3.org/2000/svg"><path d="M857.088 125.056v624.96q0 27.9 -18.972 49.662t-47.988 33.759 -57.753 17.856 -53.847 5.859 -53.847 -5.859 -57.753 -17.856 -47.988 -33.759 -18.972 -49.662 18.972 -49.662 47.988 -33.759 57.753 -17.856 53.847 -5.859q58.59 0 107.136 21.762v-299.646l-428.544 132.246v395.622q0 27.9 -18.972 49.662t-47.988 33.759 -57.753 17.856 -53.847 5.859 -53.847 -5.859 -57.753 -17.856 -47.988 -33.759 -18.972 -49.662 18.972 -49.662 47.988 -33.759 57.753 -17.856 53.847 -5.859q58.59 0 107.136 21.762v-539.586q0 -17.298 10.602 -31.527t27.342 -19.809l464.256 -142.848q6.696 -2.232 15.624 -2.232 22.32 0 37.944 15.624t15.624 37.944z"/></svg>