<svg height="1000" width="1071.429" xmlns="http://www.w3.org/2000/svg"><path d="M357.12 321.472q0 44.64 -31.248 75.888t-75.888 31.248 -75.888 -31.248 -31.248 -75.888 31.248 -75.888 75.888 -31.248 75.888 31.248 31.248 75.888zm571.392 214.272v249.984h-785.664v-107.136l178.56 -178.56 89.28 89.28 285.696 -285.696zm53.568 -392.832h-892.8q-7.254 0 -12.555 5.301t-5.301 12.555v678.528q0 7.254 5.301 12.555t12.555 5.301h892.8q7.254 0 12.555 -5.301t5.301 -12.555v-678.528q0 -7.254 -5.301 -12.555t-12.555 -5.301zm89.28 17.856v678.528q0 36.828 -26.226 63.054t-63.054 26.226h-892.8q-36.828 0 -63.054 -26.226t-26.226 -63.054v-678.528q0 -36.828 26.226 -63.054t63.054 -26.226h892.8q36.828 0 63.054 26.226t26.226 63.054z"/></svg>