<?xml version="1.0" encoding="utf-8"?>

<!-- License Agreement at http://iconmonstr.com/license/ -->

<!DOCTYPE svg PUBLIC "-//W3C//DTD SVG 1.1//EN" "http://www.w3.org/Graphics/SVG/1.1/DTD/svg11.dtd">
<svg version="1.1" xmlns="http://www.w3.org/2000/svg" xmlns:xlink="http://www.w3.org/1999/xlink" x="0px" y="0px"
	 width="512px" height="512px" viewBox="0 0 512 512" style="enable-background:new 0 0 512 512;" xml:space="preserve">
<path id="selection-1" d="M238.833,444.834V410.5h-68.667v34.334H238.833z M376.166,101.5h51.5v34.333H462V67.166h-85.834V101.5z
	 M50,341.834h34.333v-68.668H50V341.834z M50,238.833h34.333v-68.667H50V238.833z M84.333,135.833V101.5h51.5V67.166H50v68.667
	H84.333z M462,170.166h-34.334v68.667H462V170.166z M462,273.166h-34.334v68.668H462V273.166z M427.666,376.166V410.5h-51.5v34.334
	H462v-68.668H427.666z M135.833,410.5h-51.5v-34.334H50v68.668h85.833V410.5z M341.834,444.834V410.5h-68.668v34.334H341.834z
	 M238.833,101.5V67.166h-68.667V101.5H238.833z M341.834,101.5V67.166h-68.668V101.5H341.834z"/>
</svg>
