<?xml version="1.0" encoding="utf-8"?>

<!-- The icon can be used freely in both personal and commercial projects with no attribution required, but always appreciated. 
You may NOT sub-license, resell, rent, redistribute or otherwise transfer the icon without express written permission from iconmonstr.com -->

<!DOCTYPE svg PUBLIC "-//W3C//DTD SVG 1.1//EN" "http://www.w3.org/Graphics/SVG/1.1/DTD/svg11.dtd">
<svg version="1.1" xmlns="http://www.w3.org/2000/svg" xmlns:xlink="http://www.w3.org/1999/xlink" x="0px" y="0px"
	 width="512px" height="512px" viewBox="0 0 512 512" enable-background="new 0 0 512 512" xml:space="preserve">
<path id="sound-wave-icon" d="M70.004,266h-20v-20h20V266z M461.996,246h-20v20h20V246z M431.844,231h-20v50h20V231z M100.156,236
	h-20v40h20V236z M130.309,226h-20v60h20V226z M160.461,206h-20v100h20V206z M190.613,226h-20v60h20V226z M220.766,186h-20v140h20
	V186z M250.918,146h-20v220h20V146z M281.082,186H261.08v140h20.002V186z M311.234,216h-20v80h20V216z M341.387,226h-20v60h20V226z
	 M371.539,236h-20v40h20V236z M401.691,216h-20v80h20V216z"/>
</svg>
