<svg height="1000" width="785.714" xmlns="http://www.w3.org/2000/svg"><path d="M285.696 410.752V732.16q0 7.812-5.022 12.834t-12.834 5.022h-35.712q-7.812 0-12.834-5.022t-5.022-12.834V410.752q0-7.812 5.022-12.834t12.834-5.022h35.712q7.812 0 12.834 5.022t5.022 12.834zm142.848 0V732.16q0 7.812-5.022 12.834t-12.834 5.022h-35.712q-7.812 0-12.834-5.022t-5.022-12.834V410.752q0-7.812 5.022-12.834t12.834-5.022h35.712q7.812 0 12.834 5.022t5.022 12.834zm142.848 0V732.16q0 7.812-5.022 12.834t-12.834 5.022h-35.712q-7.812 0-12.834-5.022t-5.022-12.834V410.752q0-7.812 5.022-12.834t12.834-5.022h35.712q7.812 0 12.834 5.022t5.022 12.834zm71.424 403.992V285.76H142.848v528.984q0 12.276 3.906 22.599t8.091 15.066 5.859 4.743H624.96q1.674 0 5.859-4.743t8.091-15.066 3.906-22.599zM267.84 214.336h249.984L491.04 149.05q-3.906-5.022-9.486-6.138H304.668q-5.58 1.116-9.486 6.138zm517.824 17.856v35.712q0 7.812-5.022 12.834t-12.834 5.022H714.24v528.984q0 46.314-26.226 80.073t-63.054 33.759H160.704q-36.828 0-63.054-32.643t-26.226-78.957V285.76H17.856q-7.812 0-12.834-5.022T0 267.904v-35.712q0-7.812 5.022-12.834t12.834-5.022h172.422l39.06-93.186q8.37-20.646 30.132-35.154t44.082-14.508h178.56q22.32 0 44.082 14.508t30.132 35.154l39.06 93.186h172.422q7.812 0 12.834 5.022t5.022 12.834z"/></svg>