<svg height="1000" width="785.714" xmlns="http://www.w3.org/2000/svg"><path d="M285.696 767.872v-392.832q0 -7.812 -5.022 -12.834t-12.834 -5.022h-35.712q-7.812 0 -12.834 5.022t-5.022 12.834v392.832q0 7.812 5.022 12.834t12.834 5.022h35.712q7.812 0 12.834 -5.022t5.022 -12.834zm142.848 0v-392.832q0 -7.812 -5.022 -12.834t-12.834 -5.022h-35.712q-7.812 0 -12.834 5.022t-5.022 12.834v392.832q0 7.812 5.022 12.834t12.834 5.022h35.712q7.812 0 12.834 -5.022t5.022 -12.834zm142.848 0v-392.832q0 -7.812 -5.022 -12.834t-12.834 -5.022h-35.712q-7.812 0 -12.834 5.022t-5.022 12.834v392.832q0 7.812 5.022 12.834t12.834 5.022h35.712q7.812 0 12.834 -5.022t5.022 -12.834zm-303.552 -553.536h249.984l-26.784 -65.286q-3.906 -5.022 -9.486 -6.138h-176.886q-5.58 1.116 -9.486 6.138zm517.824 17.856v35.712q0 7.812 -5.022 12.834t-12.834 5.022h-53.568v528.984q0 46.314 -26.226 80.073t-63.054 33.759h-464.256q-36.828 0 -63.054 -32.643t-26.226 -78.957v-531.216h-53.568q-7.812 0 -12.834 -5.022t-5.022 -12.834v-35.712q0 -7.812 5.022 -12.834t12.834 -5.022h172.422l39.06 -93.186q8.37 -20.646 30.132 -35.154t44.082 -14.508h178.56q22.32 0 44.082 14.508t30.132 35.154l39.06 93.186h172.422q7.812 0 12.834 5.022t5.022 12.834z"/></svg>