<svg height="1000" width="1071.429" xmlns="http://www.w3.org/2000/svg"><path d="M214.272 892.864v-71.424q0 -14.508 -10.602 -25.11t-25.11 -10.602h-71.424q-14.508 0 -25.11 10.602t-10.602 25.11v71.424q0 14.508 10.602 25.11t25.11 10.602h71.424q14.508 0 25.11 -10.602t10.602 -25.11zm0 -214.272v-71.424q0 -14.508 -10.602 -25.11t-25.11 -10.602h-71.424q-14.508 0 -25.11 10.602t-10.602 25.11v71.424q0 14.508 10.602 25.11t25.11 10.602h71.424q14.508 0 25.11 -10.602t10.602 -25.11zm0 -214.272v-71.424q0 -14.508 -10.602 -25.11t-25.11 -10.602h-71.424q-14.508 0 -25.11 10.602t-10.602 25.11v71.424q0 14.508 10.602 25.11t25.11 10.602h71.424q14.508 0 25.11 -10.602t10.602 -25.11zm571.392 428.544v-285.696q0 -14.508 -10.602 -25.11t-25.11 -10.602h-428.544q-14.508 0 -25.11 10.602t-10.602 25.11v285.696q0 14.508 10.602 25.11t25.11 10.602h428.544q14.508 0 25.11 -10.602t10.602 -25.11zm-571.392 -642.816v-71.424q0 -14.508 -10.602 -25.11t-25.11 -10.602h-71.424q-14.508 0 -25.11 10.602t-10.602 25.11v71.424q0 14.508 10.602 25.11t25.11 10.602h71.424q14.508 0 25.11 -10.602t10.602 -25.11zm785.664 642.816v-71.424q0 -14.508 -10.602 -25.11t-25.11 -10.602h-71.424q-14.508 0 -25.11 10.602t-10.602 25.11v71.424q0 14.508 10.602 25.11t25.11 10.602h71.424q14.508 0 25.11 -10.602t10.602 -25.11zm-214.272 -428.544v-285.696q0 -14.508 -10.602 -25.11t-25.11 -10.602h-428.544q-14.508 0 -25.11 10.602t-10.602 25.11v285.696q0 14.508 10.602 25.11t25.11 10.602h428.544q14.508 0 25.11 -10.602t10.602 -25.11zm214.272 214.272v-71.424q0 -14.508 -10.602 -25.11t-25.11 -10.602h-71.424q-14.508 0 -25.11 10.602t-10.602 25.11v71.424q0 14.508 10.602 25.11t25.11 10.602h71.424q14.508 0 25.11 -10.602t10.602 -25.11zm0 -214.272v-71.424q0 -14.508 -10.602 -25.11t-25.11 -10.602h-71.424q-14.508 0 -25.11 10.602t-10.602 25.11v71.424q0 14.508 10.602 25.11t25.11 10.602h71.424q14.508 0 25.11 -10.602t10.602 -25.11zm0 -214.272v-71.424q0 -14.508 -10.602 -25.11t-25.11 -10.602h-71.424q-14.508 0 -25.11 10.602t-10.602 25.11v71.424q0 14.508 10.602 25.11t25.11 10.602h71.424q14.508 0 25.11 -10.602t10.602 -25.11zm71.424 -89.28v749.952q0 36.828 -26.226 63.054t-63.054 26.226h-892.8q-36.828 0 -63.054 -26.226t-26.226 -63.054v-749.952q0 -36.828 26.226 -63.054t63.054 -26.226h892.8q36.828 0 63.054 26.226t26.226 63.054z"/></svg>