<?xml version="1.0" encoding="iso-8859-1"?>
<!-- Generator: Adobe Illustrator 16.0.0, SVG Export Plug-In . SVG Version: 6.00 Build 0)  -->
<!DOCTYPE svg PUBLIC "-//W3C//DTD SVG 1.1//EN" "http://www.w3.org/Graphics/SVG/1.1/DTD/svg11.dtd">
<svg version="1.1" id="Capa_1" xmlns="http://www.w3.org/2000/svg" xmlns:xlink="http://www.w3.org/1999/xlink" x="0px" y="0px"
	 width="611.981px" height="611.981px" viewBox="0 0 611.981 611.981" style="enable-background:new 0 0 611.981 611.981;"
	 xml:space="preserve">
<g>
	<g>
		<path d="M284.54,64.07c-8.278-3.421-17.812-1.511-24.235,4.894L125.832,204.292H22.251C9.916,204.292,0,214.245,0,226.544v160.601
			c0,12.299,9.916,22.251,22.251,22.251H125.34l135.038,135.329c4.257,4.275,9.989,6.532,15.738,6.532
			c2.838,0,5.786-0.546,8.497-1.692c8.351-3.421,13.755-11.554,13.755-20.541V84.628C298.349,75.623,292.891,67.49,284.54,64.07z"/>
		<path d="M516.116,306.216c0-83.365-49.543-158.453-126.25-191.367c-11.299-4.839-24.416,0.383-29.22,11.699
			c-4.857,11.28,0.364,24.362,11.662,29.202c60.405,25.872,99.323,84.931,99.323,150.466c0,65.245-38.772,124.158-98.832,150.049
			c-11.262,4.876-16.483,17.957-11.626,29.22c3.621,8.424,11.826,13.445,20.505,13.445c2.875,0,5.896-0.582,8.77-1.838
			C466.828,464.179,516.116,389.255,516.116,306.216z"/>
		<path d="M417.686,306.18c0-44.048-26.182-83.621-66.773-100.832c-11.262-4.713-24.344,0.473-29.11,11.808
			c-4.876,11.316,0.418,24.38,11.717,29.184c24.09,10.188,39.627,33.695,39.627,59.841c0,25.836-15.392,49.234-39.153,59.587
			c-11.299,4.876-16.448,17.976-11.59,29.256c3.657,8.388,11.826,13.373,20.432,13.373c2.947,0,6.004-0.582,8.879-1.856
			C391.776,389.146,417.686,349.738,417.686,306.18z"/>
		<path d="M427.674,26.807c-11.299-4.894-24.453,0.346-29.22,11.663c-4.876,11.299,0.346,24.38,11.662,29.201
			c95.593,41.028,157.345,134.656,157.345,238.582c0,103.543-61.516,196.989-156.816,238.09
			c-11.299,4.876-16.521,17.939-11.699,29.22c3.657,8.424,11.826,13.445,20.432,13.445c2.948,0,6.005-0.582,8.879-1.837
			c111.586-48.105,183.726-157.617,183.726-278.937C612,184.534,539.678,74.84,427.674,26.807z"/>
	</g>
</g>
<g>
</g>
<g>
</g>
<g>
</g>
<g>
</g>
<g>
</g>
<g>
</g>
<g>
</g>
<g>
</g>
<g>
</g>
<g>
</g>
<g>
</g>
<g>
</g>
<g>
</g>
<g>
</g>
<g>
</g>
</svg>
