<?xml version="1.0" encoding="utf-8"?>
<!-- Generator: Adobe Illustrator 16.0.0, SVG Export Plug-In . SVG Version: 6.00 Build 0)  -->
<!DOCTYPE svg PUBLIC "-//W3C//DTD SVG 1.1//EN" "http://www.w3.org/Graphics/SVG/1.1/DTD/svg11.dtd">
<svg version="1.1" id="Capa_1" xmlns="http://www.w3.org/2000/svg" xmlns:xlink="http://www.w3.org/1999/xlink" x="0px" y="0px"
	 width="612px" height="612px" viewBox="0 0 612 612" enable-background="new 0 0 612 612" xml:space="preserve">
<g>
	<g>
		<path d="M284.5,64.1c-8.3-3.4-17.8-1.5-24.2,4.9L125.8,204.3H22.3c-12.3,0-22.3,10-22.3,22.3v160.6c0,12.3,9.9,22.3,22.3,22.3
			h103.1l135,135.3c4.3,4.3,10,6.5,15.7,6.5c2.8,0,5.8-0.5,8.5-1.7c8.4-3.4,13.8-11.6,13.8-20.5V84.6
			C298.3,75.6,292.9,67.5,284.5,64.1z"/>
		<path d="M516.1,306.2c0-83.4-49.5-158.5-126.3-191.4c-11.3-4.8-24.4,0.4-29.2,11.7c-4.9,11.3,0.4,24.4,11.7,29.2
			c60.4,25.9,99.3,84.9,99.3,150.5c0,65.2-38.8,124.2-98.8,150c-11.3,4.9-16.5,18-11.6,29.2c3.6,8.4,11.8,13.4,20.5,13.4
			c2.9,0,5.9-0.6,8.8-1.8C466.8,464.2,516.1,389.3,516.1,306.2z"/>
		<path d="M417.7,306.2c0-44-26.2-83.6-66.8-100.8c-11.3-4.7-24.3,0.5-29.1,11.8c-4.9,11.3,0.4,24.4,11.7,29.2
			c24.1,10.2,39.6,33.7,39.6,59.8c0,25.8-15.4,49.2-39.2,59.6c-11.3,4.9-16.4,18-11.6,29.3c3.7,8.4,11.8,13.4,20.4,13.4
			c2.9,0,6-0.6,8.9-1.9C391.8,389.1,417.7,349.7,417.7,306.2z"/>
	</g>
</g>
</svg>
