<svg xmlns="http://www.w3.org/2000/svg" width="611.981" height="611.981"><path d="M284.54 64.07c-8.278-3.421-17.812-1.511-24.235 4.894L125.832 204.292H22.251C9.916 204.292 0 214.245 0 226.544v160.601c0 12.299 9.916 22.251 22.251 22.251H125.34l135.038 135.329a22.256 22.256 0 0 0 15.738 6.532c2.838 0 5.786-.546 8.497-1.692 8.351-3.421 13.755-11.554 13.755-20.541V84.628A22.28 22.28 0 0 0 284.54 64.07zM516.116 306.216c0-83.365-49.543-158.453-126.25-191.367-11.299-4.839-24.416.383-29.22 11.699-4.857 11.28.364 24.362 11.662 29.202 60.405 25.872 99.323 84.931 99.323 150.466 0 65.245-38.772 124.158-98.832 150.049-11.262 4.876-16.483 17.957-11.626 29.22 3.621 8.424 11.826 13.445 20.505 13.445 2.875 0 5.896-.582 8.77-1.838 76.38-32.913 125.668-107.837 125.668-190.876z"/><path d="M417.686 306.18c0-44.048-26.182-83.621-66.773-100.832-11.262-4.713-24.344.473-29.11 11.808-4.876 11.316.418 24.38 11.717 29.184 24.09 10.188 39.627 33.695 39.627 59.841 0 25.836-15.392 49.234-39.153 59.587-11.299 4.876-16.448 17.976-11.59 29.256 3.657 8.388 11.826 13.373 20.432 13.373 2.947 0 6.004-.582 8.879-1.856 40.061-17.395 65.971-56.803 65.971-100.361z"/><path d="M427.674 26.807c-11.299-4.894-24.453.346-29.22 11.663-4.876 11.299.346 24.38 11.662 29.201 95.593 41.028 157.345 134.656 157.345 238.582 0 103.543-61.516 196.989-156.816 238.09-11.299 4.876-16.521 17.939-11.699 29.22a22.262 22.262 0 0 0 20.432 13.445c2.948 0 6.005-.582 8.879-1.837 111.586-48.105 183.726-157.617 183.726-278.937.017-121.7-72.305-231.394-184.309-279.427z"/></svg>