<?xml version="1.0" encoding="utf-8"?>

<!-- The icon can be used freely in both personal and commercial projects with no attribution required, but always appreciated. 
You may NOT sub-license, resell, rent, redistribute or otherwise transfer the icon without express written permission from iconmonstr.com -->

<!DOCTYPE svg PUBLIC "-//W3C//DTD SVG 1.1//EN" "http://www.w3.org/Graphics/SVG/1.1/DTD/svg11.dtd">
<svg version="1.1" xmlns="http://www.w3.org/2000/svg" xmlns:xlink="http://www.w3.org/1999/xlink" x="0px" y="0px"
	 width="512px" height="512px" viewBox="0 0 512 512" enable-background="new 0 0 512 512" xml:space="preserve">
<path id="sound-wave-2-icon" d="M226.496,363.925l-29.6-117.792l-20.778,64.322c-2.808,8.692-14.909,9.365-18.645,1.008
	l-19.977-44.682l-12.85,17.877c-1.879,2.614-4.901,4.164-8.12,4.164H50v-20h61.399l20.008-27.836
	c4.481-6.239,14.096-5.298,17.249,1.754l16.44,36.771l23.486-72.705c3.069-9.5,16.767-9.105,19.214,0.637l26.301,104.667
	l26.561-163.228c1.75-10.763,17.197-11.339,19.625-0.596l30.817,136.519l21.115-53.96c3.253-8.314,14.971-8.527,18.502-0.3
	l25.419,59.223l12.318-16.849c1.883-2.575,4.882-4.098,8.072-4.098H462v20h-60.396l-19.67,26.902
	c-4.575,6.257-14.215,5.138-17.262-1.958l-22.717-52.928l-24.115,61.628c-3.592,9.173-16.906,8.13-19.067-1.442l-26.65-118.063
	l-26.058,160.134C244.326,373.778,229.148,374.483,226.496,363.925z"/>
</svg>
