<svg height="1000" width="1071.429" xmlns="http://www.w3.org/2000/svg"><path d="M993.798 519.562q0-19.53-29.574-19.53H357.12q-22.32 0-47.709 11.997t-39.897 29.295L105.462 743.878q-10.044 13.392-10.044 22.32 0 19.53 29.574 19.53h607.104q22.32 0 47.988-12.276t39.618-29.574l164.052-202.554q10.044-12.276 10.044-21.762zM357.12 428.608h428.544v-89.28q0-22.32-15.624-37.944t-37.944-15.624H410.688q-22.32 0-37.944-15.624t-15.624-37.944V196.48q0-22.32-15.624-37.944t-37.944-15.624h-178.56q-22.32 0-37.944 15.624T71.424 196.48v475.974l142.848-175.77Q238.824 467.11 279 447.859t78.12-19.251zm708.102 90.954q0 34.596-25.668 66.96l-164.61 202.554q-23.994 29.574-64.728 48.825t-78.12 19.251H124.992q-51.336 0-88.164-36.828T0 732.16V196.48q0-51.336 36.828-88.164t88.164-36.828h178.56q51.336 0 88.164 36.828t36.828 88.164v17.856h303.552q51.336 0 88.164 36.828t36.828 88.164v89.28h107.136q30.132 0 55.242 13.671t37.386 39.339q8.37 17.856 8.37 37.944z"/></svg>