<svg xmlns="http://www.w3.org/2000/svg" width="512" height="512"><path d="M403.098 261.407c-3.892 10.137-53.989 118.73-66.353 146.472C323.784 436.965 307.403 466 260.664 466h-91.611c-49.186 0-75.154-29.184-75.154-80.229 0-56.466.086-222.737.086-222.737 0-29.539 40.693-28.034 40.693-1.367v97.66c0 8.029 14.729 7.991 14.729 0V102.401c0-30.371 46.047-29.554 46.047 0v148.15c0 8.175 13.677 7.833 13.677-.169V76.504c0-29.565 45.045-30.443 45.045 0l.021 175.87c0 7.884 14.168 8.054 14.168 0V104.66c0-27.96 42.059-28.82 42.059 0v182.852c0 10.244 11.594 11.881 15.427 4.054 3.639-7.435 27.051-54.717 27.231-55.072 15.146-31.741 65.773-12.458 50.016 24.913z"/></svg>