<svg xmlns="http://www.w3.org/2000/svg" width="512" height="512"><path d="M299.823 364.41h-87.646c-6.144 0-11.124 4.98-11.124 11.123s4.98 11.122 11.124 11.122h87.647c6.143 0 11.123-4.979 11.123-11.122s-4.98-11.123-11.124-11.123zm-2.001 37.033h-83.645c-6.143 0-11.123 4.98-11.123 11.123s4.98 11.123 11.123 11.123h83.646c6.142 0 11.122-4.98 11.122-11.123s-4.98-11.123-11.123-11.123zm-83.072 36.518C236.406 457.979 238.636 462 247.28 462h16.65c8.45 0 10.532-3.727 33.319-24.039H214.75zm167.871-266.507c0 75.31-64.767 117.514-64.767 176.943h-29.493c.025-73.246 64.232-111.827 64.232-176.943 0-121.891-193.188-122.081-193.188 0 0 65.057 63.094 101.976 64.559 176.943h-29.819c0-59.43-64.767-101.634-64.767-176.943.001-161.856 253.243-162.021 253.243 0zm-168.535 16.628l-24.814-3.22c5.41-41.692 31.35-72.57 73.533-80.384l4.557 24.604c-40.67 7.534-50.836 40.199-53.276 59z"/></svg>