<svg height="1000" width="857.143" xmlns="http://www.w3.org/2000/svg"><path d="M202.554 857.152l50.778-50.778-131.13-131.13-50.778 50.778v59.706h71.424v71.424h59.706zm291.834-517.824q0-12.276-12.276-12.276-5.58 0-9.486 3.906L170.19 633.394q-3.906 3.906-3.906 9.486 0 12.276 12.276 12.276 5.58 0 9.486-3.906l302.436-302.436q3.906-3.906 3.906-9.486zm-30.132-107.136L696.384 464.32 232.128 928.576H0V696.448zM845.37 285.76q0 29.574-20.646 50.22l-92.628 92.628L499.968 196.48l92.628-92.07q20.088-21.204 50.22-21.204 29.574 0 50.778 21.204l131.13 130.572q20.646 21.762 20.646 50.778z"/></svg>