<svg height="1000" width="1071.429" xmlns="http://www.w3.org/2000/svg"><path d="M214.272 892.864V821.44q0-14.508-10.602-25.11t-25.11-10.602h-71.424q-14.508 0-25.11 10.602t-10.602 25.11v71.424q0 14.508 10.602 25.11t25.11 10.602h71.424q14.508 0 25.11-10.602t10.602-25.11zm0-214.272v-71.424q0-14.508-10.602-25.11t-25.11-10.602h-71.424q-14.508 0-25.11 10.602t-10.602 25.11v71.424q0 14.508 10.602 25.11t25.11 10.602h71.424q14.508 0 25.11-10.602t10.602-25.11zm0-214.272v-71.424q0-14.508-10.602-25.11t-25.11-10.602h-71.424q-14.508 0-25.11 10.602t-10.602 25.11v71.424q0 14.508 10.602 25.11t25.11 10.602h71.424q14.508 0 25.11-10.602t10.602-25.11zm571.392 428.544V607.168q0-14.508-10.602-25.11t-25.11-10.602H321.408q-14.508 0-25.11 10.602t-10.602 25.11v285.696q0 14.508 10.602 25.11t25.11 10.602h428.544q14.508 0 25.11-10.602t10.602-25.11zM214.272 250.048v-71.424q0-14.508-10.602-25.11t-25.11-10.602h-71.424q-14.508 0-25.11 10.602t-10.602 25.11v71.424q0 14.508 10.602 25.11t25.11 10.602h71.424q14.508 0 25.11-10.602t10.602-25.11zm785.664 642.816V821.44q0-14.508-10.602-25.11t-25.11-10.602H892.8q-14.508 0-25.11 10.602t-10.602 25.11v71.424q0 14.508 10.602 25.11t25.11 10.602h71.424q14.508 0 25.11-10.602t10.602-25.11zM785.664 464.32V178.624q0-14.508-10.602-25.11t-25.11-10.602H321.408q-14.508 0-25.11 10.602t-10.602 25.11V464.32q0 14.508 10.602 25.11t25.11 10.602h428.544q14.508 0 25.11-10.602t10.602-25.11zm214.272 214.272v-71.424q0-14.508-10.602-25.11t-25.11-10.602H892.8q-14.508 0-25.11 10.602t-10.602 25.11v71.424q0 14.508 10.602 25.11t25.11 10.602h71.424q14.508 0 25.11-10.602t10.602-25.11zm0-214.272v-71.424q0-14.508-10.602-25.11t-25.11-10.602H892.8q-14.508 0-25.11 10.602t-10.602 25.11v71.424q0 14.508 10.602 25.11t25.11 10.602h71.424q14.508 0 25.11-10.602t10.602-25.11zm0-214.272v-71.424q0-14.508-10.602-25.11t-25.11-10.602H892.8q-14.508 0-25.11 10.602t-10.602 25.11v71.424q0 14.508 10.602 25.11t25.11 10.602h71.424q14.508 0 25.11-10.602t10.602-25.11zm71.424-89.28V910.72q0 36.828-26.226 63.054T982.08 1000H89.28q-36.828 0-63.054-26.226T0 910.72V160.768q0-36.828 26.226-63.054T89.28 71.488h892.8q36.828 0 63.054 26.226t26.226 63.054z"/></svg>