<svg xmlns="http://www.w3.org/2000/svg" width="612" height="612"><path d="M284.5 64.1c-8.3-3.4-17.8-1.5-24.2 4.9L125.8 204.3H22.3C10 204.3 0 214.3 0 226.6v160.6c0 12.3 9.9 22.3 22.3 22.3h103.1l135 135.3c4.3 4.3 10 6.5 15.7 6.5 2.8 0 5.8-.5 8.5-1.7 8.4-3.4 13.8-11.6 13.8-20.5V84.6c-.1-9-5.5-17.1-13.9-20.5zM516.1 306.2c0-83.4-49.5-158.5-126.3-191.4-11.3-4.8-24.4.4-29.2 11.7-4.9 11.3.4 24.4 11.7 29.2 60.4 25.9 99.3 84.9 99.3 150.5 0 65.2-38.8 124.2-98.8 150-11.3 4.9-16.5 18-11.6 29.2 3.6 8.4 11.8 13.4 20.5 13.4 2.9 0 5.9-.6 8.8-1.8 76.3-32.8 125.6-107.7 125.6-190.8z"/><path d="M417.7 306.2c0-44-26.2-83.6-66.8-100.8-11.3-4.7-24.3.5-29.1 11.8-4.9 11.3.4 24.4 11.7 29.2 24.1 10.2 39.6 33.7 39.6 59.8 0 25.8-15.4 49.2-39.2 59.6-11.3 4.9-16.4 18-11.6 29.3 3.7 8.4 11.8 13.4 20.4 13.4 2.9 0 6-.6 8.9-1.9 40.2-17.5 66.1-56.9 66.1-100.4z"/></svg>