<svg xmlns="http://www.w3.org/2000/svg" width="512" height="512"><path d="M226.496 363.925l-29.6-117.792-20.778 64.322c-2.808 8.692-14.909 9.365-18.645 1.008l-19.977-44.682-12.85 17.877a10 10 0 0 1-8.12 4.164H50v-20h61.399l20.008-27.836c4.481-6.239 14.096-5.298 17.249 1.754l16.44 36.771 23.486-72.705c3.069-9.5 16.767-9.105 19.214.637l26.301 104.667 26.561-163.228c1.75-10.763 17.197-11.339 19.625-.596L311.1 284.805l21.115-53.96c3.253-8.314 14.971-8.527 18.502-.3l25.419 59.223 12.318-16.849a10.001 10.001 0 0 1 8.072-4.098H462v20h-60.396l-19.67 26.902c-4.575 6.257-14.215 5.138-17.262-1.958l-22.717-52.928-24.115 61.628c-3.592 9.173-16.906 8.13-19.067-1.442l-26.65-118.063-26.058 160.134c-1.739 10.684-16.917 11.389-19.569.831z"/></svg>