<svg xmlns="http://www.w3.org/2000/svg" width="1024" height="1024"><path fill="#897EBB" d="M792 373.6l.1 230-288 115.4h-.1l288-115.4-288-115 288-115z"/><path fill="#7062AB" d="M792 144v229.6L504 258.4z"/><path fill="#897EBB" d="M792 373.6l-288 115-.1-230.2h.1zM792 603.6L504 719V488.6zM504 719z"/><path fill="#897EBB" d="M504 258.4h-.1L216 373.5V144zM504 488.6zM504 719L216 603.6l.1-.1v.1z"/><path fill="#7062AB" d="M504 488.6V719L216.1 603.6v-.1z"/><path fill="#7062AB" d="M504 488.6L216.1 603.5l-.1-229.9zM503.9 258.4l.1 230.2-288-115v-.1z"/><path fill="#897EBB" d="M216 373.5v.1z"/><g fill="none" stroke="#FFF" stroke-width="6" stroke-miterlimit="10"><path d="M216.1 603.5l-.1-229.9M216 373.5V144l288 114.4L792 144v229.6l.1 230-288 115.4h-.1"/><path stroke-linejoin="round" d="M504 719l288-115.4-288-115-288-115v-.1l287.9-115.1h.1l288 115.2-288 115-287.9 114.9-.1.1L504 719M504 719V488.6M504 488.6l-.1-230.2"/></g></svg>